<svg preserveAspectRatio="none" width="100%" height="100%" overflow="visible" style="display: block;" viewBox="0 0 11.7857 11.5719" fill="none" xmlns="http://www.w3.org/2000/svg">
<path id="Vector 6" d="M0.785714 5.00025C0.351776 5.00025 0 5.35203 0 5.78597C0 6.21991 0.351776 6.57168 0.785714 6.57168V5.78597V5.00025ZM11.5556 6.34155C11.8624 6.03471 11.8624 5.53723 11.5556 5.23039L6.55533 0.23013C6.24849 -0.0767102 5.751 -0.0767102 5.44416 0.23013C5.13732 0.536971 5.13732 1.03446 5.44416 1.3413L9.88883 5.78597L5.44416 10.2306C5.13732 10.5375 5.13732 11.035 5.44416 11.3418C5.751 11.6486 6.24849 11.6486 6.55533 11.3418L11.5556 6.34155ZM0.785714 5.78597V6.57168H11V5.78597V5.00025H0.785714V5.78597Z" fill="var(--stroke-0, #E0E738)"/>
</svg>
