<svg width="3186" height="622" viewBox="0 0 3186 622" fill="none" xmlns="http://www.w3.org/2000/svg">
<path d="M620.437 308.916C620.158 308.566 619.669 308.427 619.18 308.497C618.69 308.566 572.504 318.209 531.628 297.107C492.918 277.123 455.326 279.918 449.107 280.547C449.107 280.547 449.247 280.407 449.317 280.337C453.719 274.048 470.279 252.946 497.809 246.518C531.488 238.692 535.331 219.616 535.471 218.778C535.541 218.288 535.331 217.729 534.912 217.45C534.493 217.17 533.934 217.17 533.514 217.45C523.243 224.577 492.289 232.613 469.161 228.56C450.435 225.276 434.923 227.931 429.123 229.119C430.8 219.686 438.836 194.601 477.965 167.21C529.881 130.875 530.021 94.4705 528.274 90.5575C528.064 90.1383 527.645 89.8588 527.226 89.7889C526.737 89.7889 526.317 89.9986 526.038 90.3479C525.758 90.7672 500.185 130.386 456.374 144.641C417.873 157.148 393.698 183.351 387.758 190.339C386.291 182.443 383.007 156.24 397.47 132.343C415.358 102.786 404.388 86.6446 403.899 86.0157C403.62 85.5965 403.061 85.3868 402.571 85.5266C402.082 85.6663 401.663 86.0157 401.593 86.5747C399.497 98.8727 383.705 126.613 364.63 140.448C348.419 152.187 339.475 165.603 336.68 170.145C332.348 164.695 317.186 141.147 326.549 89.9287C337.938 27.6704 312.504 1.60712 308.452 0.0698769C308.032 -0.0698724 307.543 -6.32537e-06 307.194 0.279492C306.845 0.558991 306.705 1.04812 306.775 1.53724C306.845 2.02636 316.487 48.2136 295.385 89.0902C275.891 126.753 278.126 164.136 278.755 171.263C271.908 166.372 251.784 149.951 245.565 123.189C237.739 89.5094 218.594 85.6663 217.826 85.5266C217.337 85.4567 216.778 85.6663 216.498 86.0856C216.219 86.5048 216.219 87.0638 216.498 87.483C223.625 97.7546 231.66 128.639 227.608 151.838C224.114 172.031 227.328 188.172 228.446 192.994C218.454 191.247 193.789 183.002 166.538 144.291C130.064 92.4442 93.6603 92.4441 89.7474 94.2609C89.3281 94.4705 89.0488 94.8898 89.0488 95.3091C89.0488 95.7982 89.2581 96.2174 89.6075 96.4969C90.0267 96.7764 129.715 122.211 144.109 166.022C156.057 202.427 180.233 225.975 188.688 233.381C179.674 234.919 154.59 237.504 131.462 223.529C101.905 205.641 85.7643 216.611 85.1355 217.101C84.7162 217.38 84.507 217.939 84.6467 218.428C84.7865 218.917 85.1356 219.337 85.6946 219.406C97.9923 221.503 125.732 237.294 139.567 256.37C152.005 273.629 166.468 282.643 170.032 284.739C146.065 303.116 99.8791 295.779 90.7257 294.102C28.3286 282.643 2.33532 308.147 0.867977 312.2C0.72823 312.619 0.798308 313.108 1.0778 313.458C1.3573 313.807 1.84636 313.947 2.33548 313.877C2.82459 313.807 49.0112 304.164 89.8873 325.336C118.186 339.94 145.786 342.386 161.158 342.386C165.211 342.386 168.355 342.246 170.521 342.036C165.7 348.814 149.28 369.148 122.378 375.367C88.6992 383.193 84.856 402.338 84.7163 403.107C84.6464 403.596 84.8561 404.155 85.2754 404.435C85.6946 404.714 86.2537 404.714 86.6729 404.435C96.9443 397.307 127.829 389.272 151.027 393.324C170.172 396.678 185.963 393.883 191.413 392.626C189.806 402.059 181.771 427.144 142.502 454.605C90.5858 490.939 90.3761 527.344 92.1928 531.257C92.4024 531.676 92.8218 531.956 93.2411 532.026C93.6603 532.026 94.1493 531.816 94.4288 531.467C94.7083 531.047 120.282 491.428 164.093 477.174C201.825 464.946 225.651 439.651 232.429 431.825C233.966 440.28 236.901 465.994 222.647 489.472C204.759 519.029 215.729 535.17 216.218 535.799C216.428 536.148 216.847 536.358 217.267 536.358C217.337 536.358 217.476 536.358 217.546 536.358C218.035 536.218 218.454 535.869 218.524 535.31C220.621 523.012 236.482 495.202 255.487 481.436C272.047 469.488 280.991 455.723 283.577 451.46C287.559 456.421 303.421 479.829 293.918 531.956C282.528 594.284 307.962 620.277 312.015 621.815C312.155 621.815 312.295 621.885 312.434 621.885C312.714 621.885 313.063 621.745 313.273 621.605C313.622 621.325 313.762 620.836 313.692 620.347C313.622 619.858 303.98 573.671 325.081 532.794C344.367 495.551 342.41 458.587 341.711 450.901C349.467 456.491 368.473 472.562 374.552 498.695C382.378 532.375 401.453 536.218 402.292 536.358C402.362 536.358 402.432 536.358 402.502 536.358C402.921 536.358 403.34 536.148 403.549 535.799C403.829 535.38 403.829 534.821 403.549 534.401C396.422 524.13 388.387 493.245 392.44 470.047C395.933 449.783 392.719 433.642 391.601 428.891C400.615 430.428 426.049 438.184 453.858 477.593C484.603 521.265 515.347 528.183 526.527 528.183C528.623 528.183 530.021 527.973 530.649 527.693C531.069 527.484 531.349 527.065 531.418 526.645C531.488 526.226 531.209 525.737 530.859 525.457C530.44 525.178 490.752 499.744 476.358 455.932C464.479 419.737 441.142 396.678 431.709 388.503C440.513 387.036 465.737 384.59 488.655 398.425C501.792 406.391 512.273 408.627 519.959 408.627C529.532 408.627 534.632 405.133 534.982 404.854C535.401 404.574 535.61 404.015 535.471 403.526C535.331 403.037 534.982 402.618 534.423 402.548C522.125 400.452 494.315 384.66 480.55 365.584C469.161 349.793 456.024 340.849 451.203 337.914C457.632 333.093 481.109 319.257 530.789 328.341C593.117 339.731 619.109 314.296 620.647 310.243C620.786 309.824 620.717 309.335 620.437 308.986V308.916ZM282.459 447.897C282.459 447.897 282.319 447.897 282.249 447.827C246.194 440.35 214.961 419.178 194.488 388.363C194.488 388.294 194.418 388.224 194.348 388.154L194.139 387.944L192.462 385.219C192.462 385.149 192.462 385.079 192.392 385.009C183.797 371.314 177.788 356.431 174.364 340.639C174.364 340.639 174.364 340.639 174.364 340.569C174.364 340.569 174.364 340.569 174.364 340.499C172.338 330.926 171.29 321.074 171.29 311.152C171.29 302.418 172.128 293.683 173.736 285.089C173.805 284.599 174.644 280.687 174.644 280.687C174.644 280.687 174.644 280.547 174.644 280.477C178.207 264.546 184.496 249.522 193.3 235.757C193.3 235.757 193.3 235.687 193.37 235.617C193.37 235.617 193.37 235.548 193.44 235.478C203.571 219.756 216.498 206.41 231.94 195.859C232.289 195.579 235.014 193.762 235.014 193.762C235.084 193.762 235.154 193.762 235.224 193.623C248.989 184.679 264.082 178.39 280.083 174.757C280.572 174.617 284.904 173.708 284.904 173.708C284.974 173.708 285.044 173.708 285.114 173.708C302.093 170.564 319.911 170.564 336.82 173.708C354.428 176.993 371.058 183.631 386.221 193.343C386.361 193.413 386.5 193.483 386.64 193.483C386.71 193.623 386.85 193.693 386.989 193.832C417.734 213.816 439.046 244.352 447.151 279.918C447.291 280.407 447.57 281.804 447.64 282.154C449.596 291.517 450.645 301.23 450.645 311.012C450.645 319.956 449.806 328.9 448.129 337.634V337.774C448.129 337.774 448.129 337.774 448.129 337.844C444.705 355.383 438.067 371.873 428.285 386.966C428.285 386.966 428.285 387.036 428.285 387.106C428.285 387.106 428.285 387.106 428.215 387.175C418.083 402.688 405.226 415.894 389.994 426.305C389.854 426.445 389.714 426.585 389.645 426.725L389.225 426.864C389.225 426.864 389.086 426.934 388.946 427.004C374.273 436.856 358.132 443.774 340.943 447.477C340.524 447.547 337.239 448.246 337.239 448.246C337.17 448.246 337.1 448.246 337.03 448.246C320.121 451.39 302.303 451.39 285.323 448.246C285.254 448.246 285.184 448.246 285.114 448.246H283.926L282.808 447.757L282.459 447.897Z" fill="#1F1F1F"/>
<path d="M620.437 308.916C620.158 308.566 619.669 308.427 619.18 308.497C618.69 308.566 572.504 318.209 531.628 297.107C492.918 277.123 455.326 279.918 449.107 280.547C449.107 280.547 449.247 280.407 449.317 280.337C453.719 274.048 470.279 252.946 497.809 246.518C531.488 238.692 535.331 219.616 535.471 218.778C535.541 218.288 535.331 217.729 534.912 217.45C534.493 217.17 533.934 217.17 533.514 217.45C523.243 224.577 492.289 232.613 469.161 228.56C450.435 225.276 434.923 227.931 429.123 229.119C430.8 219.686 438.836 194.601 477.965 167.21C529.881 130.875 530.021 94.4705 528.274 90.5575C528.064 90.1383 527.645 89.8588 527.226 89.7889C526.737 89.7889 526.317 89.9986 526.038 90.3479C525.758 90.7672 500.185 130.386 456.374 144.641C417.873 157.148 393.698 183.351 387.758 190.339C386.291 182.443 383.007 156.24 397.47 132.343C415.358 102.786 404.388 86.6446 403.899 86.0157C403.62 85.5965 403.061 85.3868 402.571 85.5266C402.082 85.6663 401.663 86.0157 401.593 86.5747C399.497 98.8727 383.705 126.613 364.63 140.448C348.419 152.187 339.475 165.603 336.68 170.145C332.348 164.695 317.186 141.147 326.549 89.9287C337.938 27.6704 312.504 1.60712 308.452 0.0698769C308.032 -0.0698724 307.543 -6.32537e-06 307.194 0.279492C306.845 0.558991 306.705 1.04812 306.775 1.53724C306.845 2.02636 316.487 48.2136 295.385 89.0902C275.891 126.753 278.126 164.136 278.755 171.263C271.908 166.372 251.784 149.951 245.565 123.189C237.739 89.5094 218.594 85.6663 217.826 85.5266C217.337 85.4567 216.778 85.6663 216.498 86.0856C216.219 86.5048 216.219 87.0638 216.498 87.483C223.625 97.7546 231.66 128.639 227.608 151.838C224.114 172.031 227.328 188.172 228.446 192.994C218.454 191.247 193.789 183.002 166.538 144.291C130.064 92.4442 93.6603 92.4441 89.7474 94.2609C89.3281 94.4705 89.0488 94.8898 89.0488 95.3091C89.0488 95.7982 89.2581 96.2174 89.6075 96.4969C90.0267 96.7764 129.715 122.211 144.109 166.022C156.057 202.427 180.233 225.975 188.688 233.381C179.674 234.919 154.59 237.504 131.462 223.529C101.905 205.641 85.7643 216.611 85.1355 217.101C84.7162 217.38 84.507 217.939 84.6467 218.428C84.7865 218.917 85.1356 219.337 85.6946 219.406C97.9923 221.503 125.732 237.294 139.567 256.37C152.005 273.629 166.468 282.643 170.032 284.739C146.065 303.116 99.8791 295.779 90.7257 294.102C28.3286 282.643 2.33532 308.147 0.867977 312.2C0.72823 312.619 0.798308 313.108 1.0778 313.458C1.3573 313.807 1.84636 313.947 2.33548 313.877C2.82459 313.807 49.0112 304.164 89.8873 325.336C118.186 339.94 145.786 342.386 161.158 342.386C165.211 342.386 168.355 342.246 170.521 342.036C165.7 348.814 149.28 369.148 122.378 375.367C88.6992 383.193 84.856 402.338 84.7163 403.107C84.6464 403.596 84.8561 404.155 85.2754 404.435C85.6946 404.714 86.2537 404.714 86.6729 404.435C96.9443 397.307 127.829 389.272 151.027 393.324C170.172 396.678 185.963 393.883 191.413 392.626C189.806 402.059 181.771 427.144 142.502 454.605C90.5858 490.939 90.3761 527.344 92.1928 531.257C92.4024 531.676 92.8218 531.956 93.2411 532.026C93.6603 532.026 94.1493 531.816 94.4288 531.467C94.7083 531.047 120.282 491.428 164.093 477.174C201.825 464.946 225.651 439.651 232.429 431.825C233.966 440.28 236.901 465.994 222.647 489.472C204.759 519.029 215.729 535.17 216.218 535.799C216.428 536.148 216.847 536.358 217.267 536.358C217.337 536.358 217.476 536.358 217.546 536.358C218.035 536.218 218.454 535.869 218.524 535.31C220.621 523.012 236.482 495.202 255.487 481.436C272.047 469.488 280.991 455.723 283.577 451.46C287.559 456.421 303.421 479.829 293.918 531.956C282.528 594.284 307.962 620.277 312.015 621.815C312.155 621.815 312.295 621.885 312.434 621.885C312.714 621.885 313.063 621.745 313.273 621.605C313.622 621.325 313.762 620.836 313.692 620.347C313.622 619.858 303.98 573.671 325.081 532.794C344.367 495.551 342.41 458.587 341.711 450.901C349.467 456.491 368.473 472.562 374.552 498.695C382.378 532.375 401.453 536.218 402.292 536.358C402.362 536.358 402.432 536.358 402.502 536.358C402.921 536.358 403.34 536.148 403.549 535.799C403.829 535.38 403.829 534.821 403.549 534.401C396.422 524.13 388.387 493.245 392.44 470.047C395.933 449.783 392.719 433.642 391.601 428.891C400.615 430.428 426.049 438.184 453.858 477.593C484.603 521.265 515.347 528.183 526.527 528.183C528.623 528.183 530.021 527.973 530.649 527.693C531.069 527.484 531.349 527.065 531.418 526.645C531.488 526.226 531.209 525.737 530.859 525.457C530.44 525.178 490.752 499.744 476.358 455.932C464.479 419.737 441.142 396.678 431.709 388.503C440.513 387.036 465.737 384.59 488.655 398.425C501.792 406.391 512.273 408.627 519.959 408.627C529.532 408.627 534.632 405.133 534.982 404.854C535.401 404.574 535.61 404.015 535.471 403.526C535.331 403.037 534.982 402.618 534.423 402.548C522.125 400.452 494.315 384.66 480.55 365.584C469.161 349.793 456.024 340.849 451.203 337.914C457.632 333.093 481.109 319.257 530.789 328.341C593.117 339.731 619.109 314.296 620.647 310.243C620.786 309.824 620.717 309.335 620.437 308.986V308.916ZM282.459 447.897C282.459 447.897 282.319 447.897 282.249 447.827C246.194 440.35 214.961 419.178 194.488 388.363C194.488 388.294 194.418 388.224 194.348 388.154L194.139 387.944L192.462 385.219C192.462 385.149 192.462 385.079 192.392 385.009C183.797 371.314 177.788 356.431 174.364 340.639C174.364 340.639 174.364 340.639 174.364 340.569C174.364 340.569 174.364 340.569 174.364 340.499C172.338 330.926 171.29 321.074 171.29 311.152C171.29 302.418 172.128 293.683 173.736 285.089C173.805 284.599 174.644 280.687 174.644 280.687C174.644 280.687 174.644 280.547 174.644 280.477C178.207 264.546 184.496 249.522 193.3 235.757C193.3 235.757 193.3 235.687 193.37 235.617C193.37 235.617 193.37 235.548 193.44 235.478C203.571 219.756 216.498 206.41 231.94 195.859C232.289 195.579 235.014 193.762 235.014 193.762C235.084 193.762 235.154 193.762 235.224 193.623C248.989 184.679 264.082 178.39 280.083 174.757C280.572 174.617 284.904 173.708 284.904 173.708C284.974 173.708 285.044 173.708 285.114 173.708C302.093 170.564 319.911 170.564 336.82 173.708C354.428 176.993 371.058 183.631 386.221 193.343C386.361 193.413 386.5 193.483 386.64 193.483C386.71 193.623 386.85 193.693 386.989 193.832C417.734 213.816 439.046 244.352 447.151 279.918C447.291 280.407 447.57 281.804 447.64 282.154C449.596 291.517 450.645 301.23 450.645 311.012C450.645 319.956 449.806 328.9 448.129 337.634V337.774C448.129 337.774 448.129 337.774 448.129 337.844C444.705 355.383 438.067 371.873 428.285 386.966C428.285 386.966 428.285 387.036 428.285 387.106C428.285 387.106 428.285 387.106 428.215 387.175C418.083 402.688 405.226 415.894 389.994 426.305C389.854 426.445 389.714 426.585 389.645 426.725L389.225 426.864C389.225 426.864 389.086 426.934 388.946 427.004C374.273 436.856 358.132 443.774 340.943 447.477C340.524 447.547 337.239 448.246 337.239 448.246C337.17 448.246 337.1 448.246 337.03 448.246C320.121 451.39 302.303 451.39 285.323 448.246C285.254 448.246 285.184 448.246 285.114 448.246H283.926L282.808 447.757L282.459 447.897Z" fill="#1F1F1F"/>
<path d="M798.261 436.859C774.924 422.465 757.385 404.158 745.646 382.007C733.908 359.857 728.038 337.287 728.038 314.369V306.333C728.038 282.855 733.837 260.146 745.436 238.275C757.035 216.404 774.504 198.447 797.842 184.472C821.179 170.427 849.409 163.439 882.459 163.439C911.806 163.439 937.31 168.959 958.901 180.069C980.491 191.18 997.68 205.644 1010.33 223.462C1022.97 241.35 1031.22 260.705 1034.92 281.458H972.456C966.866 261.683 956.105 245.961 940.244 234.222C924.383 222.483 905.098 216.614 882.389 216.614C864.012 216.614 847.662 220.667 833.338 228.842C819.083 237.017 808.043 248.197 800.287 262.452C792.532 276.706 788.688 292.777 788.688 310.665C788.688 328.553 792.532 343.436 800.287 357.691C808.043 371.945 819.013 383.405 833.338 391.93C847.592 400.454 863.942 404.717 882.389 404.717C904.818 404.717 923.963 398.707 939.825 386.689C955.686 374.67 966.447 358.949 972.037 339.454H1034.85C1030.87 359.997 1022.42 379.352 1009.63 397.45C996.842 415.617 979.583 430.291 957.992 441.471C936.401 452.651 911.177 458.31 882.319 458.31C849.478 458.31 821.389 451.113 798.051 436.719L798.261 436.859Z" fill="#1F1F1F"/>
<path d="M1065.04 250.364H1125.48V274.751C1133.72 264.898 1143.16 257.422 1153.71 252.321C1164.26 247.29 1177.11 244.704 1192.35 244.704H1203.53V294.316H1178.72C1159.79 294.316 1146.23 297.809 1138.13 304.727C1129.95 311.644 1125.9 323.523 1125.9 340.363V450.415H1065.04V250.294V250.364Z" fill="#1F1F1F"/>
<path d="M1271.31 442.858C1253.84 432.726 1240.78 419.73 1232.11 403.868C1223.45 388.006 1219.12 371.376 1219.12 354.047V347.619C1219.12 330.011 1223.59 313.171 1232.53 297.169C1241.48 281.168 1254.61 268.241 1271.94 258.319C1289.27 248.467 1310.09 243.506 1334.41 243.506C1358.72 243.506 1379.55 248.467 1397.01 258.319C1414.48 268.172 1427.69 281.098 1436.63 297.169C1445.58 313.171 1450.05 330.011 1450.05 347.619V355.655C1450.05 358.31 1449.91 360.965 1449.63 363.69H1280.33C1282.49 377.805 1288.29 388.775 1297.72 396.531C1307.23 404.287 1319.52 408.27 1334.76 408.55C1347.05 408.27 1357.47 405.475 1365.99 400.165C1374.52 394.854 1380.8 387.238 1384.79 377.316H1447.25C1443.76 391.989 1437.33 405.405 1427.83 417.563C1418.33 429.722 1405.75 439.504 1390.03 446.981C1374.31 454.457 1355.86 458.161 1334.83 458.161C1310.02 458.161 1288.85 453.06 1271.38 442.928L1271.31 442.858ZM1366.76 301.572C1357.95 295.982 1347.12 293.187 1334.34 293.187C1321.55 293.187 1310.79 295.982 1302.13 301.572C1293.46 307.161 1287.24 315.197 1283.54 325.608H1385.62C1381.85 315.197 1375.63 307.161 1366.83 301.572H1366.76Z" fill="#1F1F1F"/>
<path d="M1532.28 442.858C1514.82 432.726 1501.75 419.73 1493.09 403.868C1484.42 388.006 1480.09 371.376 1480.09 354.047V347.619C1480.09 330.011 1484.56 313.171 1493.5 297.169C1502.45 281.168 1515.58 268.241 1532.91 258.319C1550.24 248.467 1571.06 243.506 1595.38 243.506C1617.81 243.506 1637.23 247.698 1653.79 256.083C1670.35 264.468 1683.35 275.648 1692.78 289.483C1702.29 303.388 1708.09 318.272 1710.18 334.273H1648.97C1646.32 320.927 1640.45 310.725 1631.37 303.668C1622.28 296.61 1610.26 293.047 1595.38 293.047C1578.05 293.047 1564.57 298.148 1554.99 308.28C1545.42 318.411 1540.6 332.596 1540.6 350.693C1540.6 368.791 1545.42 382.556 1554.99 392.688C1564.57 402.82 1578.19 408.061 1595.8 408.27C1608.59 407.991 1619.35 405.126 1628.01 399.676C1636.68 394.225 1642.89 386.26 1646.6 375.848H1708.65C1705.15 390.522 1698.72 404.078 1689.22 416.445C1679.72 428.883 1667.07 438.875 1651.21 446.492C1635.35 454.108 1616.83 457.881 1595.8 457.881C1570.99 457.881 1549.82 452.78 1532.35 442.648L1532.28 442.858Z" fill="#1F1F1F"/>
<path d="M1740.16 250.373H1800.6V450.494H1740.16V250.373Z" fill="#1F1F1F"/>
<path d="M1835.82 250.779H1895.07V274.397C1899.33 267.758 1907.58 261.12 1919.88 254.552C1932.17 247.984 1942.79 244.77 1951.88 244.77H1953.07C1983.18 244.77 2005.33 254.902 2019.52 275.165C2034.47 254.902 2056.9 244.77 2086.73 244.77H2088.34C2115.8 244.77 2136.83 252.945 2151.37 269.156C2165.9 285.437 2173.17 308.495 2173.17 338.402V450.83H2112.31V331.135C2112.31 319.955 2109.23 311.151 2103.08 304.722C2096.94 298.294 2088.27 295.149 2077.09 295.149C2064.79 295.149 2055.22 298.434 2048.3 304.932C2041.39 311.5 2037.89 320.863 2037.89 333.161V450.83H1984.23L1984.65 331.973C1984.65 320.234 1980.6 311.151 1972.42 304.792C1964.25 298.364 1954.04 295.219 1941.82 295.219C1927.91 295.219 1916.8 298.294 1908.42 304.443C1900.03 310.592 1895.84 320.164 1895.84 333.231V450.9H1835.82V250.779Z" fill="#1F1F1F"/>
<path d="M2203.22 250.373H2263.66V450.494H2203.22V250.373Z" fill="#1F1F1F"/>
<path d="M2351.07 442.858C2333.6 432.726 2320.53 419.73 2311.87 403.868C2303.2 388.006 2298.87 371.376 2298.87 354.047V347.619C2298.87 330.011 2303.34 313.171 2312.29 297.169C2321.23 281.168 2334.37 268.241 2351.69 258.319C2369.02 248.467 2389.85 243.506 2414.16 243.506C2438.48 243.506 2459.3 248.467 2476.77 258.319C2494.24 268.172 2507.44 281.098 2516.39 297.169C2525.33 313.171 2529.8 330.011 2529.8 347.619V355.655C2529.8 358.31 2529.66 360.965 2529.38 363.69H2360.08C2362.25 377.805 2368.05 388.775 2377.48 396.531C2386.98 404.287 2399.28 408.27 2414.51 408.55C2426.81 408.27 2437.22 405.475 2445.74 400.165C2454.27 394.854 2460.56 387.238 2464.54 377.316H2527.01C2523.51 391.989 2517.09 405.405 2507.58 417.563C2498.08 429.722 2485.5 439.504 2469.78 446.981C2454.06 454.457 2435.61 458.161 2414.58 458.161C2389.78 458.161 2368.6 453.06 2351.14 442.928L2351.07 442.858ZM2446.51 301.572C2437.71 295.982 2426.88 293.187 2414.09 293.187C2401.3 293.187 2390.54 295.982 2381.88 301.572C2373.22 307.161 2367 315.197 2363.29 325.608H2465.38C2461.61 315.197 2455.39 307.161 2446.58 301.572H2446.51Z" fill="#1F1F1F"/>
<path d="M2559.78 250.373H2619.8V273.991C2626.44 265.466 2635.24 258.409 2646 252.749C2656.76 247.089 2668.71 244.364 2681.85 244.364C2711.19 244.364 2733.27 252.539 2748.09 268.75C2762.9 285.031 2770.31 308.09 2770.31 337.996V450.424H2709.87V331.148C2709.87 319.968 2705.67 311.094 2697.29 304.526C2688.9 297.958 2678.28 294.744 2665.5 294.744C2652.71 294.744 2641.32 298.237 2633.08 305.155C2624.83 312.072 2620.64 321.436 2620.64 333.175V450.424H2559.78V250.303V250.373Z" fill="#1F1F1F"/>
<path d="M2851.36 433.066C2835.99 421.467 2828.37 402.601 2828.37 376.468V295.623H2792.73V250.414H2828.37V170.338H2889.23V250.414H2932.48V295.623H2855.2V298.837C2863.24 298.837 2870.85 301.003 2878.19 305.265C2885.53 309.528 2889.23 315.817 2889.23 324.062V380.52C2889.23 394.146 2896.99 400.924 2912.43 400.924H2930.04V450.535H2915.64C2888.18 450.535 2866.73 444.735 2851.43 433.136L2851.36 433.066Z" fill="#1F1F1F"/>
<path d="M3007.04 442.858C2989.57 432.726 2976.5 419.73 2967.84 403.868C2959.18 388.006 2954.84 371.376 2954.84 354.047V347.619C2954.84 330.011 2959.32 313.171 2968.26 297.169C2977.2 281.168 2990.34 268.241 3007.67 258.319C3025 248.467 3045.82 243.506 3070.07 243.506C3094.31 243.506 3115.2 248.467 3132.67 258.319C3150.14 268.172 3163.35 281.098 3172.29 297.169C3181.23 313.171 3185.71 330.011 3185.71 347.619V354.047C3185.71 371.376 3181.37 388.006 3172.71 403.868C3164.05 419.73 3150.98 432.726 3133.51 442.858C3116.04 452.99 3095.01 458.091 3070.48 458.091C3045.96 458.091 3024.51 452.99 3007.04 442.858ZM3110.87 392.828C3120.51 382.696 3125.27 368.651 3125.27 350.833C3125.27 333.015 3120.44 318.551 3110.87 308.419C3101.3 298.287 3087.67 293.187 3070.07 293.187C3052.46 293.187 3039.25 298.287 3029.68 308.419C3020.11 318.551 3015.28 332.736 3015.28 350.833C3015.28 368.931 3020.11 382.696 3029.68 392.828C3039.32 402.96 3052.88 408.2 3070.48 408.41C3087.81 408.13 3101.3 402.96 3110.87 392.828Z" fill="#1F1F1F"/>
<path d="M1766.36 206.193H1705.92V258.739H1766.36V206.193Z" fill="#1F1F1F"/>
<path d="M2229.42 206.193H2168.98V258.739H2229.42V206.193Z" fill="#1F1F1F"/>
</svg>
