<svg preserveAspectRatio="none" width="100%" height="100%" overflow="visible" style="display: block;" viewBox="0 0 102 23" fill="none" xmlns="http://www.w3.org/2000/svg">
<g id="logo">
<path d="M4.64314 5.43333C4.30958 5.43333 3.98403 5.52841 3.70784 5.70589L0.448303 7.79507C0.168113 7.97509 0 8.27427 0 8.59627V22.7778C0 22.8998 0.104025 22.9987 0.232346 22.9987H6.62983C6.84598 22.9987 7.05812 22.9366 7.23824 22.82L13.9214 18.5085C14.0909 18.3995 14.1096 18.5706 14.1096 18.776V22.779C14.1096 22.9011 14.2136 23 14.3419 23H18.6458C18.7741 23 18.8781 22.9011 18.8781 22.779V5.768C18.8781 5.58292 18.7194 5.43333 18.5259 5.43333H4.64314ZM14.1069 12.7201L5.07677 18.4413C4.94468 18.5237 4.76856 18.4337 4.76856 18.2829V11.7047C4.76856 11.4435 4.79792 11.0417 5.00206 10.8832L6.06144 10.0617C6.24824 9.91722 6.47506 9.83863 6.70988 9.83863H14.1069V12.7201Z" fill="var(--fill-0, #390400)"/>
<path fill-rule="evenodd" clip-rule="evenodd" d="M56.1815 5.43334C56.2814 5.43334 56.3787 5.46396 56.4588 5.52066L60.1646 8.14168C60.2824 8.22507 60.3519 8.35656 60.3519 8.49629V20.0095C60.3519 20.1071 60.304 20.1971 60.2229 20.2554L56.4397 22.9391C56.3839 22.9784 56.3174 23 56.2482 23H41.8525C41.6755 23 41.5319 22.8631 41.5319 22.6945V5.65429C41.5319 5.53226 41.6359 5.43333 41.7642 5.43333L56.1815 5.43334ZM55.4469 17.4733C55.5626 17.3897 55.6305 17.2596 55.6305 17.1214V11.3177C55.6305 11.1722 55.5552 11.0359 55.429 10.9535L53.9894 10.0123C53.8828 9.94272 53.7567 9.90544 53.6274 9.90544H46.3028V18.6302H53.6304C53.77 18.6302 53.9057 18.5867 54.0169 18.5064L55.4469 17.4733Z" fill="var(--fill-0, #390400)"/>
<path fill-rule="evenodd" clip-rule="evenodd" d="M64.462 5.43334C64.3996 5.43333 64.3398 5.45721 64.2961 5.49961L62.3933 7.34524C62.3507 7.38655 62.3269 7.44209 62.3269 7.49994V20.9701C62.3269 21.028 62.3507 21.0835 62.3933 21.1249L64.2588 22.9338C64.3025 22.9761 64.3623 23 64.4247 23H78.6972C78.7517 23 78.8045 22.9818 78.8463 22.9485L81.1218 21.1383C81.1745 21.0963 81.205 21.0342 81.205 20.9688V17.614C81.205 17.553 81.153 17.5035 81.0888 17.5035H76.5368C76.4726 17.5035 76.4206 17.553 76.4206 17.614V18.5255C76.4206 18.5865 76.3686 18.636 76.3044 18.636H70.1976L81.1024 11.6584C81.1665 11.6173 81.205 11.5486 81.205 11.4751V7.69385C81.205 7.61702 81.1714 7.54366 81.1121 7.49139L78.8651 5.50833C78.8114 5.46093 78.7409 5.43459 78.6676 5.43459L64.462 5.43334ZM67.2265 15.1281L75.1394 10.0526C75.2344 9.9917 75.1891 9.85057 75.0744 9.85057H67.2265V15.1281Z" fill="var(--fill-0, #390400)"/>
<path d="M102 5.65429C102 5.53226 101.896 5.43333 101.768 5.43333L97.4962 5.45022C97.3687 5.45072 97.2655 5.54888 97.2649 5.67015L97.209 17.0514C97.2087 17.1089 97.1276 17.1278 97.0995 17.0769L90.7378 5.58192C90.6875 5.4913 90.5886 5.4346 90.4809 5.4346H83.3542C83.2259 5.4346 83.1219 5.53353 83.1219 5.65556V22.7256C83.1219 22.8476 83.2259 22.9466 83.3542 22.9466H87.5934C87.7211 22.9466 87.8249 22.8486 87.8258 22.7271L87.9124 10.7499C87.9128 10.6927 87.9933 10.6738 88.0217 10.7242L94.8831 22.8846C94.9238 22.9557 95.0021 23 95.0872 23H101.768C101.896 23 102 22.9011 102 22.779V5.65429Z" fill="var(--fill-0, #390400)"/>
<path d="M67.1776 0.220964C67.1776 0.098929 67.2816 0 67.4099 0H76.2552C76.3835 0 76.4875 0.098929 76.4875 0.220964V2.84384C76.4875 2.96588 76.3835 3.06481 76.2552 3.06481H67.4099C67.2816 3.06481 67.1776 2.96588 67.1776 2.84384V0.220964Z" fill="var(--fill-0, #390400)"/>
<path d="M39.615 5.65429C39.615 5.53226 39.511 5.43333 39.3827 5.43333L35.1113 5.45022C34.9838 5.45072 34.8805 5.54888 34.8799 5.67015L34.824 17.0514C34.8237 17.1089 34.7427 17.1278 34.7145 17.0769L28.3528 5.58192C28.3025 5.4913 28.2037 5.4346 28.096 5.4346H20.9692C20.8409 5.4346 20.7369 5.53353 20.7369 5.65556V22.7256C20.7369 22.8476 20.8409 22.9466 20.9692 22.9466H25.2085C25.3362 22.9466 25.4399 22.8486 25.4408 22.7271L25.5275 10.7499C25.5279 10.6927 25.6083 10.6738 25.6368 10.7242L32.4982 22.8846C32.5388 22.9557 32.6172 23 32.7023 23H39.3827C39.511 23 39.615 22.9011 39.615 22.779V5.65429Z" fill="var(--fill-0, #390400)"/>
</g>
</svg>
