<svg width="1920" height="5752" viewBox="0 0 1920 5752" fill="none" xmlns="http://www.w3.org/2000/svg">
<g clip-path="url(#clip0_61_5641)">
<rect width="1920" height="5752" fill="#F2ECE0"/>
<g opacity="0.5">
<path d="M1919.91 5752H1715.6L1672 5718.57V5635H1919.91" stroke="#E0E738" stroke-width="10"/>
<path d="M6.74078 5278H211.492L235.085 5316.25V5601.78H108.274L75.4368 5694H0" stroke="#F9982F" stroke-width="10"/>
<path d="M1919.8 4699H1683.86L1577 4614.53V4517H1919.8" stroke="#F9982F" stroke-width="10"/>
<path d="M1919.62 2928H1802.38L1747.61 3003.7H1511V3076.44L1570.05 3158.05V3203H1919.62" stroke="#390400" stroke-width="1.00259"/>
<path d="M9.40338 2011L44.0249 2104.06V2286.63L77.7916 2333.16V2377.92L44.0249 2404.78V2506.31L0 2587" stroke="#A9D6F3" stroke-width="10"/>
<path d="M1916.31 4308H1881.93V4550.87L1811 4647.9V4885.48H1894.39V5200.1L1920.42 5333" stroke="#A9D6F3" stroke-width="10"/>
<path d="M-0.374895 4870L162.443 4661.49H233V4355.57L101.78 4162H14.585" stroke="#A9D6F3" stroke-width="10"/>
<path d="M1920.44 4095L1870 4010.43L1870 3675.45L1891.37 3656.22L1891.37 2892.16L1915.31 2733" stroke="#390400" stroke-width="1.00259"/>
<path d="M0 3031L70.6226 3031L70.6226 2927.08L85.4853 2913.02L85.4853 2877L3.41941 2877" stroke="#E0E738" stroke-width="10"/>
<path d="M0 3524L28.3791 3456.42V3378.26V2993.35H107.711V2921.48L50.1779 2852.88V2582.58L5.12912 2515" stroke="#390400"/>
<path d="M1893.54 2270L1813.1 2380.79V2577.4L1707.68 2666.41H1640.46V2938.2V3128.58H1699.39L1761.14 3285H1920" stroke="#E0E738" stroke-width="10"/>
<path d="M0 1831H288.906L358.059 1892.17H631.598H1190.31L1336.11 2021H1827.88L1848.91 1951.63H1920" stroke="#390400" stroke-width="1.00259"/>
<path d="M1920.37 2547L1757.56 2339.08H1687V2034.02L1818.22 1841H1905.41" stroke="#A9D6F3" stroke-width="10"/>
<path d="M1920 726L1850.08 726L1850.08 829.923L1835.37 843.978L1835.37 880L1920 880" stroke="#E0E738" stroke-width="10"/>
<path d="M-0.0177802 221L77.7718 353.3L77.7718 613.195L100 666.323L100 749.999L-0.0177828 750" stroke="#A9D6F3" stroke-width="10"/>
<path d="M0.82136 620L396.043 249H1652.83L1768.2 308.553H1919.82" stroke="#E0E738" stroke-width="13.0897"/>
<path d="M0 890H549.071L580.59 924H1833" stroke="#390400"/>
<path d="M0 863H371.921L762.197 1112.89H1664.26L1920 1320" stroke="#F9982F" stroke-width="10"/>
<path d="M1920.13 685L1770.18 455.453H1703V102.273L1757.12 -9.00001" stroke="#F9982F" stroke-width="10"/>
<path d="M1653 3V345.761H1778.15L1870.99 447.694V1138.3L1919.71 1200" stroke="#390400" stroke-width="1.00259"/>
<path d="M-0.17878 528L276.412 273.549H545.584L613.633 213.996H897.927H1807.65L1919.82 128" stroke="#390400" stroke-width="1.00259"/>
<path d="M-2.0345e-06 2962L237.553 2962L365.466 2898L681.332 2898L787.709 2962L1005.96 2962L1104.77 3071L1607.4 3071L1738.57 2962L1920 2962" stroke="#F9982F" stroke-width="10"/>
<path d="M0 4269H57.4972V4493.5L119.679 4560.5V4651H0" stroke="#390400"/>
<path d="M1920 5729H1631.79L1562.8 5667.43H1289.92H640.661L582.479 5643H91.9009L70.9159 5712.82H3.71933e-05" stroke="#390400" stroke-width="1.00259"/>
<path d="M1919.66 4459L1847 4514.27V4674.8L1876.32 4715.37V4994.09L1919.66 5077" stroke="#390400"/>
<path d="M0 4605.27H511.427L627.87 4665H1263.02L1324.75 4570H1920" stroke="#390400"/>
<path d="M1920.31 3950H1734.38C1717.43 3936.46 1683.52 3909.39 1683.52 3909.39H1557V3863.49H1640.13L1683.52 3829H1811.75L1838.3 3892.33H1920.31" stroke="#390400"/>
</g>
</g>
<defs>
<clipPath id="clip0_61_5641">
<rect width="1920" height="5752" fill="white"/>
</clipPath>
</defs>
</svg>
