<svg width="393" height="5752" viewBox="0 0 393 5752" fill="none" xmlns="http://www.w3.org/2000/svg">
<g clip-path="url(#clip0_61_5728)">
<rect width="393" height="5752" fill="#F2ECE0"/>
<g opacity="0.5">
<path d="M392.907 5752H188.598L145 5718.57V5635H392.907" stroke="#E0E738" stroke-width="10"/>
<path d="M6.74078 5278H211.492L235.085 5316.25V5601.78H108.274L75.4368 5694H0" stroke="#F9982F" stroke-width="10"/>
<path d="M392.796 4699H156.857L50 4614.53V4517H392.796" stroke="#F9982F" stroke-width="10"/>
<path d="M392.62 2928H275.382L220.614 3003.7H-16V3076.44L43.0466 3158.05V3203H392.62" stroke="#390400" stroke-width="1.00259"/>
<path d="M9.40338 2011L44.0249 2104.06V2286.63L77.7916 2333.16V2377.92L44.0249 2404.78V2506.31L0 2587" stroke="#A9D6F3" stroke-width="10"/>
<path d="M389.313 4308H354.925V4550.87L284 4647.9V4885.48H367.391V5200.1L393.421 5333" stroke="#A9D6F3" stroke-width="10"/>
<path d="M-0.374895 4870L162.443 4661.49H233V4355.57L101.78 4162H14.585" stroke="#A9D6F3" stroke-width="10"/>
<path d="M393.436 4095L343 4010.43L343 3675.45L364.371 3656.22L364.371 2892.16L388.307 2733" stroke="#390400" stroke-width="1.00259"/>
<path d="M0 3031L70.6226 3031L70.6226 2927.08L85.4853 2913.02L85.4853 2877L3.41941 2877" stroke="#E0E738" stroke-width="10"/>
<path d="M0 3524L28.3791 3456.42V3378.26V2993.35H107.711V2921.48L50.1779 2852.88V2582.58L5.12912 2515" stroke="#390400"/>
<path d="M366.54 2270L286.099 2380.79V2577.4L180.679 2666.41H113.463V2938.2V3128.58H172.39L234.14 3285H393" stroke="#E0E738" stroke-width="10"/>
<path d="M0 1831H59.1355L73.2903 1892.17H129.28H243.641L273.486 2021H374.144L378.449 1951.63H393" stroke="#390400" stroke-width="1.00259"/>
<path d="M393.375 2547L230.557 2339.08H160V2034.02L291.22 1841H378.415" stroke="#A9D6F3" stroke-width="10"/>
<path d="M393 726L323.084 726L323.084 829.923L308.37 843.978L308.37 880L393 880" stroke="#E0E738" stroke-width="10"/>
<path d="M-30.0178 221L47.7718 353.3L47.7718 613.195L70 666.323L70 749.999L-30.0178 750" stroke="#A9D6F3" stroke-width="10"/>
<path d="M0.821307 620L81.5545 249H338.282L361.849 308.553H392.821" stroke="#E0E738" stroke-width="13.0897"/>
<path d="M1 966H118.423L125.163 1000H393" stroke="#390400"/>
<path d="M0 863H76.1276L156.012 1112.89H340.653L393 1320" stroke="#F9982F" stroke-width="10"/>
<path d="M393.133 685L243.181 455.453H176V102.273L230.116 -9.00001" stroke="#F9982F" stroke-width="10"/>
<path d="M126 -243V99.7607H251.153L343.988 201.694V892.299L392.714 954" stroke="#390400" stroke-width="1.00259"/>
<path d="M-4.16438e-07 2962L48.6241 2962L74.8063 2898L139.46 2898L161.234 2962L205.907 2962L226.133 3071L329.014 3071L355.864 2962L393 2962" stroke="#F9982F" stroke-width="10"/>
<path d="M0.000976562 4269H57.4982V4493.5L119.68 4560.5V4651H0.000976562" stroke="#390400"/>
<path d="M393 5729H334.007L319.886 5667.43H264.031H131.135L119.226 5643H18.811L14.5156 5712.82H1.68085e-05" stroke="#390400" stroke-width="1.00259"/>
<path d="M392.663 4459L320 4514.27V4674.8L349.32 4715.37V4994.09L392.663 5077" stroke="#390400"/>
<path d="M0 4605.27H104.683L128.517 4665H258.524L271.16 4570H393" stroke="#390400"/>
<path d="M393.313 3950H207.382C190.427 3936.46 156.518 3909.39 156.518 3909.39H30V3863.49H113.134L156.518 3829H284.746L311.299 3892.33H393.313" stroke="#390400"/>
</g>
</g>
<defs>
<clipPath id="clip0_61_5728">
<rect width="393" height="5752" fill="white"/>
</clipPath>
</defs>
</svg>
