<svg width="1200" height="5752" viewBox="0 0 1200 5752" fill="none" xmlns="http://www.w3.org/2000/svg">
<g clip-path="url(#clip0_61_5699)">
<rect width="1200" height="5752" fill="#F2ECE0"/>
<g opacity="0.5">
<path d="M1199.91 5752H995.598L952 5718.57V5635H1199.91" stroke="#E0E738" stroke-width="10"/>
<path d="M6.74078 5278H211.492L235.085 5316.25V5601.78H108.274L75.4368 5694H0" stroke="#F9982F" stroke-width="10"/>
<path d="M1199.8 4699H963.857L857 4614.53V4517H1199.8" stroke="#F9982F" stroke-width="10"/>
<path d="M1199.62 2928H1082.38L1027.61 3003.7H791V3076.44L850.047 3158.05V3203H1199.62" stroke="#390400" stroke-width="1.00259"/>
<path d="M9.40338 2011L44.0249 2104.06V2286.63L77.7916 2333.16V2377.92L44.0249 2404.78V2506.31L0 2587" stroke="#A9D6F3" stroke-width="10"/>
<path d="M1196.31 4308H1161.93V4550.87L1091 4647.9V4885.48H1174.39V5200.1L1200.42 5333" stroke="#A9D6F3" stroke-width="10"/>
<path d="M-0.374895 4870L162.443 4661.49H233V4355.57L101.78 4162H14.585" stroke="#A9D6F3" stroke-width="10"/>
<path d="M1200.44 4095L1150 4010.43L1150 3675.45L1171.37 3656.22L1171.37 2892.16L1195.31 2733" stroke="#390400" stroke-width="1.00259"/>
<path d="M0 3031L70.6226 3031L70.6226 2927.08L85.4853 2913.02L85.4853 2877L3.41941 2877" stroke="#E0E738" stroke-width="10"/>
<path d="M0 3524L28.3791 3456.42V3378.26V2993.35H107.711V2921.48L50.1779 2852.88V2582.58L5.12912 2515" stroke="#390400"/>
<path d="M1173.54 2270L1093.1 2380.79V2577.4L987.679 2666.41H920.463V2938.2V3128.58H979.39L1041.14 3285H1200" stroke="#E0E738" stroke-width="10"/>
<path d="M0 1831H180.566L223.787 1892.17H394.749H743.942L835.071 2021H1142.42L1155.57 1951.63H1200" stroke="#390400" stroke-width="1.00259"/>
<path d="M1200.37 2547L1037.56 2339.08H967V2034.02L1098.22 1841H1185.41" stroke="#A9D6F3" stroke-width="10"/>
<path d="M1200 726L1130.08 726L1130.08 829.923L1115.37 843.978L1115.37 880L1200 880" stroke="#E0E738" stroke-width="10"/>
<path d="M-0.0177802 221L77.7718 353.3L77.7718 613.195L100 666.323L100 749.999L-0.0177828 750" stroke="#A9D6F3" stroke-width="10"/>
<path d="M0.821259 620L247.758 249H1033L1105.09 308.553H1199.82" stroke="#E0E738" stroke-width="13.0897"/>
<path d="M0 890H333.397L352.535 924H1113" stroke="#390400"/>
<path d="M0 863H232.451L476.373 1112.89H1040.16L1200 1320" stroke="#F9982F" stroke-width="10"/>
<path d="M1200.13 685L1050.18 455.453H983V102.273L1037.12 -9.00001" stroke="#F9982F" stroke-width="10"/>
<path d="M933 3V345.761H1058.15L1150.99 447.694V1138.3L1199.71 1200" stroke="#390400" stroke-width="1.00259"/>
<path d="M-0.178688 528L172.69 273.549H340.923L383.454 213.996H561.137H1129.71L1199.82 128" stroke="#390400" stroke-width="1.00259"/>
<path d="M-1.27157e-06 2962L148.47 2962L228.416 2898L425.833 2898L492.318 2962L628.724 2962L690.481 3071L1004.62 3071L1086.61 2962L1200 2962" stroke="#F9982F" stroke-width="10"/>
<path d="M0 4269H57.4972V4493.5L119.679 4560.5V4651H0" stroke="#390400"/>
<path d="M1200 5729H1019.87L976.752 5667.43H806.203H400.413L364.05 5643H57.438L44.3224 5712.82H-2.00272e-05" stroke="#390400" stroke-width="1.00259"/>
<path d="M1199.66 4459L1127 4514.27V4674.8L1156.32 4715.37V4994.09L1199.66 5077" stroke="#390400"/>
<path d="M0 4605.27H319.642L392.419 4665H789.387L827.97 4570H1200" stroke="#390400"/>
<path d="M1200.31 3950H1014.38C997.427 3936.46 963.518 3909.39 963.518 3909.39H837V3863.49H920.134L963.518 3829H1091.75L1118.3 3892.33H1200.31" stroke="#390400"/>
</g>
</g>
<defs>
<clipPath id="clip0_61_5699">
<rect width="1200" height="5752" fill="white"/>
</clipPath>
</defs>
</svg>
